<svg class="desk-icon" aria-hidden="true" viewBox="0 0 1024 1024"><path d="M85.333333 128c0-23.573333 19.2-42.666667 42.666667-42.666667h768c23.466667 0 42.666667 19.093333 42.666667 42.666667v597.333333c0 23.573333-19.2 42.666667-42.666667 42.666667H128c-23.466667 0-42.666667-19.093333-42.666667-42.666667V128z m436.906667 132.288a14.378667 14.378667 0 0 0-20.48 0l-157.226667 157.077333a11.029333 11.029333 0 0 0 7.893334 18.730667H448V576c0 11.776 9.6 21.333333 21.333333 21.333333h85.333334c11.733333 0 21.333333-9.557333 21.333333-21.333333v-139.904h95.573333c9.813333 0 14.72-11.818667 7.893334-18.730667l-157.226667-157.077333zM362.666667 853.333333c-11.733333 0-21.333333 9.557333-21.333334 21.333334v42.666666c0 11.776 9.6 21.333333 21.333334 21.333334h298.666666c11.733333 0 21.333333-9.557333 21.333334-21.333334v-42.666666c0-11.776-9.6-21.333333-21.333334-21.333334H362.666667z"></path></svg>