<svg class="icon-end " aria-hidden="true" viewBox="0 0 1024 1024"><path d="M363.413333 491.136a40.106667 40.106667 0 0 0-30.592 32.064l-13.76 74.730667c-2.645333 14.336-12.8 26.261333-26.730666 31.424l-164.138667 61.013333c-20.757333 7.68-44.096-1.450667-53.589333-20.992L29.525333 576.64c-16.661333-34.304-7.552-75.669333 24.106667-97.770667 286.698667-200.384 625.792-195.178667 915.584 1.130667 31.786667 21.546667 41.834667 62.421333 26.176 96.917333l-41.621333 91.733334c-9.045333 19.904-32.362667 29.610667-53.354667 22.186666l-174.506667-61.525333a41.728 41.728 0 0 1-27.52-32.426667l-11.968-72.362666a40.533333 40.533333 0 0 0-31.68-33.173334 734.506667 734.506667 0 0 0-142.485333-15.68 647.957333 647.957333 0 0 0-148.842667 15.466667z"></path></svg>