<svg class="yes-icon" aria-hidden="true" viewBox="0 0 1024 1024"><path d="M362.666667 192a149.333333 149.333333 0 1 1 298.666666 0v298.666667a149.333333 149.333333 0 1 1-298.666666 0V192z m192 637.354667c168.384-20.992 298.666667-164.629333 298.666666-338.688v-53.333334a21.333333 21.333333 0 0 0-21.333333-21.333333h-42.666667a21.333333 21.333333 0 0 0-21.333333 21.333333V490.666667c0 141.376-114.624 256-256 256s-256-114.624-256-256v-53.333334a21.333333 21.333333 0 0 0-21.333333-21.333333H192a21.333333 21.333333 0 0 0-21.333333 21.333333V490.666667c0 174.058667 130.282667 317.696 298.666666 338.688V960a21.333333 21.333333 0 0 0 21.333334 21.333333h42.666666a21.333333 21.333333 0 0 0 21.333334-21.333333v-130.645333z"></path></svg>