<svg class="no-icon" aria-hidden="true" viewBox="0 0 1024 1024"><path d="M373.12 136.96A149.376 149.376 0 0 1 661.333333 192v233.152L373.12 136.938667z m191.744 493.418667A149.333333 149.333333 0 0 1 362.666667 490.666667v-62.485334l202.197333 202.197334z m79.466667 79.466666l61.696 61.696A339.370667 339.370667 0 0 1 554.666667 829.354667V960a21.333333 21.333333 0 0 1-21.333334 21.333333h-42.666666a21.333333 21.333333 0 0 1-21.333334-21.333333v-130.645333C300.949333 808.362667 170.666667 664.725333 170.666667 490.666667v-53.333334a21.333333 21.333333 0 0 1 21.333333-21.333333h42.666667a21.333333 21.333333 0 0 1 21.333333 21.333333V490.666667c0 141.376 114.624 256 256 256 48.426667 0 93.717333-13.44 132.330667-36.821334z m120.832-180.885333C767.018667 516.48 768 503.68 768 490.666667v-53.333334a21.333333 21.333333 0 0 1 21.333333-21.333333h42.666667a21.333333 21.333333 0 0 1 21.333333 21.333333V490.666667c0 38.037333-6.229333 74.624-17.706666 108.8l-70.464-70.506667zM95.872 40.704L126.037333 10.538667a21.333333 21.333333 0 0 1 30.165334 0l814.592 814.592a21.333333 21.333333 0 0 1 0 30.165333l-30.165334 30.165333a21.333333 21.333333 0 0 1-30.165333 0L95.872 70.869333a21.333333 21.333333 0 0 1 0-30.165333z"></path></svg>