<svg class="no-icon" aria-hidden="true" viewBox="0 0 1024 1024"><path d="M325.376 170.666667H661.333333a42.666667 42.666667 0 0 1 42.666667 42.666666v342.613334L325.376 170.666667zM688 844.010667A42.496 42.496 0 0 1 661.333333 853.333333H64a42.666667 42.666667 0 0 1-42.666667-42.666666V213.333333c0-13.013333 5.802667-24.64 14.976-32.469333L688 844.010667zM35.413333 58.24l30.442667-29.909333a21.333333 21.333333 0 0 1 30.165333 0.256l807.466667 821.674666a21.333333 21.333333 0 0 1-0.277333 30.165334l-30.442667 29.909333a21.333333 21.333333 0 0 1-30.165333-0.256L35.157333 88.405333a21.333333 21.333333 0 0 1 0.277334-30.165333zM938.026667 294.784c28.373333-17.066667 64.64 3.413333 64.64 36.586667v361.301333c0 33.152-36.266667 53.632-64.64 36.586667L789.333333 640V384l148.693334-89.237333z"></path></svg>