<svg class="icon-person" aria-hidden="true" viewBox="0 0 1024 1024"><path d="M554.666667 277.333333a192 192 0 1 1-384 0 192 192 0 0 1 384 0zM248.96 554.666667h227.413333C602.026667 554.666667 704 657.813333 704 785.066667v115.2c0 21.205333-17.066667 38.4-37.973333 38.4H59.306667C38.4 938.666667 21.333333 921.472 21.333333 900.266667v-115.2C21.333333 657.813333 123.306667 554.666667 248.96 554.666667z m534.613333 323.882666v-116.373333c0-54.144-18.56-103.978667-49.493333-143.509333H832c94.293333 0 170.666667 74.496 170.666667 166.4v83.2c0 15.317333-12.8 27.733333-28.373334 27.733333h-190.72v-17.450667zM746.666667 554.666667c-70.613333 0-128-57.301333-128-128s57.386667-128 128-128 128 57.301333 128 128-57.386667 128-128 128z"></path></svg>