<svg class="icon start-new-meeting" width="58" height="58" viewBox="0 0 58 58" fill="none" xmlns="http://www.w3.org/2000/svg"><rect x="5" y="12" width="33.3913" height="34" rx="3" fill="#326FFE"></rect><rect x="11.2609" y="18.375" width="6.26087" height="6.375" rx="1" fill="white"></rect><path d="M7.92203 45.1497L37.5345 14.9973C37.8482 14.678 38.3913 14.9001 38.3913 15.3477V43C38.3913 44.6569 37.0481 46 35.3913 46H8.27877C7.83549 46 7.61143 45.4659 7.92203 45.1497Z" fill="#5386FD"></path><path d="M41.5 24.3139C41.5 23.6216 41.858 22.9786 42.4464 22.6139L48.4196 18.9118C50.4181 17.6731 53 19.1105 53 21.4617V37.158C53 39.5092 50.4181 40.9466 48.4196 39.7079L42.4464 36.0058C41.858 35.6411 41.5 34.9981 41.5 34.3058V24.3139Z" fill="#2F6CFB"></path></svg><svg class="icon start-new-meeting" width="58" height="58" viewBox="0 0 58 58" fill="none" xmlns="http://www.w3.org/2000/svg"><rect x="5" y="12" width="33.3913" height="34" rx="3" fill="#326FFE"></rect><rect x="11.2609" y="18.375" width="6.26087" height="6.375" rx="1" fill="white"></rect><path d="M7.92203 45.1497L37.5345 14.9973C37.8482 14.678 38.3913 14.9001 38.3913 15.3477V43C38.3913 44.6569 37.0481 46 35.3913 46H8.27877C7.83549 46 7.61143 45.4659 7.92203 45.1497Z" fill="#5386FD"></path><path d="M41.5 24.3139C41.5 23.6216 41.858 22.9786 42.4464 22.6139L48.4196 18.9118C50.4181 17.6731 53 19.1105 53 21.4617V37.158C53 39.5092 50.4181 40.9466 48.4196 39.7079L42.4464 36.0058C41.858 35.6411 41.5 34.9981 41.5 34.3058V24.3139Z" fill="#2F6CFB"></path></svg>